{
	"asset":{
		"generator":"Khronos glTF Blender I/O v3.5.30",
		"version":"2.0"
	},
	"scene":0,
	"scenes":[
		{
			"name":"Scene",
			"nodes":[
				3
			]
		}
	],
	"nodes":[
		{
			"name":"Bone.001",
			"rotation":[
				6.71794140316706e-08,
				0,
				0,
				1
			],
			"translation":[
				0,
				2.6845784187316895,
				0
			]
		},
		{
			"children":[
				0
			],
			"name":"Bone",
			"translation":[
				0,
				-2.67759370803833,
				0
			]
		},
		{
			"mesh":0,
			"name":"Cylinder",
			"skin":0
		},
		{
			"children":[
				2,
				1
			],
			"name":"Armature"
		}
	],
	"animations":[
		{
			"channels":[
				{
					"sampler":0,
					"target":{
						"node":1,
						"path":"translation"
					}
				},
				{
					"sampler":1,
					"target":{
						"node":1,
						"path":"rotation"
					}
				},
				{
					"sampler":2,
					"target":{
						"node":1,
						"path":"scale"
					}
				},
				{
					"sampler":3,
					"target":{
						"node":0,
						"path":"translation"
					}
				},
				{
					"sampler":4,
					"target":{
						"node":0,
						"path":"rotation"
					}
				},
				{
					"sampler":5,
					"target":{
						"node":0,
						"path":"scale"
					}
				}
			],
			"name":"ArmatureAction",
			"samplers":[
				{
					"input":6,
					"interpolation":"LINEAR",
					"output":7
				},
				{
					"input":6,
					"interpolation":"LINEAR",
					"output":8
				},
				{
					"input":6,
					"interpolation":"LINEAR",
					"output":9
				},
				{
					"input":6,
					"interpolation":"LINEAR",
					"output":10
				},
				{
					"input":6,
					"interpolation":"LINEAR",
					"output":11
				},
				{
					"input":6,
					"interpolation":"LINEAR",
					"output":12
				}
			]
		}
	],
	"meshes":[
		{
			"name":"Cylinder",
			"primitives":[
				{
					"attributes":{
						"POSITION":0,
						"NORMAL":1,
						"JOINTS_0":2,
						"WEIGHTS_0":3
					},
					"indices":4
				}
			]
		}
	],
	"skins":[
		{
			"inverseBindMatrices":5,
			"joints":[
				1,
				0
			],
			"name":"Armature"
		}
	],
	"accessors":[
		{
			"bufferView":0,
			"componentType":5126,
			"count":1472,
			"max":[
				1,
				2.890998125076294,
				1
			],
			"min":[
				-1,
				-2.890998125076294,
				-0.9999999403953552
			],
			"type":"VEC3"
		},
		{
			"bufferView":1,
			"componentType":5126,
			"count":1472,
			"type":"VEC3"
		},
		{
			"bufferView":2,
			"componentType":5121,
			"count":1472,
			"type":"VEC4"
		},
		{
			"bufferView":3,
			"componentType":5126,
			"count":1472,
			"type":"VEC4"
		},
		{
			"bufferView":4,
			"componentType":5123,
			"count":4212,
			"type":"SCALAR"
		},
		{
			"bufferView":5,
			"componentType":5126,
			"count":2,
			"type":"MAT4"
		},
		{
			"bufferView":6,
			"componentType":5126,
			"count":181,
			"max":[
				7.5
			],
			"min":[
				0
			],
			"type":"SCALAR"
		},
		{
			"bufferView":7,
			"componentType":5126,
			"count":181,
			"type":"VEC3"
		},
		{
			"bufferView":8,
			"componentType":5126,
			"count":181,
			"type":"VEC4"
		},
		{
			"bufferView":9,
			"componentType":5126,
			"count":181,
			"type":"VEC3"
		},
		{
			"bufferView":10,
			"componentType":5126,
			"count":181,
			"type":"VEC3"
		},
		{
			"bufferView":11,
			"componentType":5126,
			"count":181,
			"type":"VEC4"
		},
		{
			"bufferView":12,
			"componentType":5126,
			"count":181,
			"type":"VEC3"
		}
	],
	"bufferViews":[
		{
			"buffer":0,
			"byteLength":17664,
			"byteOffset":0,
			"target":34962
		},
		{
			"buffer":0,
			"byteLength":17664,
			"byteOffset":17664,
			"target":34962
		},
		{
			"buffer":0,
			"byteLength":5888,
			"byteOffset":35328,
			"target":34962
		},
		{
			"buffer":0,
			"byteLength":23552,
			"byteOffset":41216,
			"target":34962
		},
		{
			"buffer":0,
			"byteLength":8424,
			"byteOffset":64768,
			"target":34963
		},
		{
			"buffer":0,
			"byteLength":128,
			"byteOffset":73192
		},
		{
			"buffer":0,
			"byteLength":724,
			"byteOffset":73320
		},
		{
			"buffer":0,
			"byteLength":2172,
			"byteOffset":74044
		},
		{
			"buffer":0,
			"byteLength":2896,
			"byteOffset":76216
		},
		{
			"buffer":0,
			"byteLength":2172,
			"byteOffset":79112
		},
		{
			"buffer":0,
			"byteLength":2172,
			"byteOffset":81284
		},
		{
			"buffer":0,
			"byteLength":2896,
			"byteOffset":83456
		},
		{
			"buffer":0,
			"byteLength":2172,
			"byteOffset":86352
		}
	],
	"buffers":[
		{
			"byteLength":88524,
			"uri":"data:application/octet-stream;base64,"
		}
	]
}
